<?xml version="1.0" encoding="UTF-8" standalone="no"?>
<!DOCTYPE svg PUBLIC "-//W3C//DTD SVG 1.1//EN"
 "http://www.w3.org/Graphics/SVG/1.1/DTD/svg11.dtd">
<!-- Generated by graphviz version 12.1.1 (20240910.0053)
 -->
<!-- Title: INFRA Pages: 1 -->
<svg width="958pt" height="404pt"
 viewBox="0.00 0.00 958.17 404.00" xmlns="http://www.w3.org/2000/svg" xmlns:xlink="http://www.w3.org/1999/xlink">
<g id="graph0" class="graph" transform="scale(1 1) rotate(0) translate(4 400)">
<title>INFRA</title>
<polygon fill="white" stroke="none" points="-4,4 -4,-400 954.17,-400 954.17,4 -4,4"/>
<!-- ExpressApplication -->
<g id="node1" class="node">
<title>ExpressApplication</title>
<path fill="#b7e0ff" stroke="black" stroke-width="2" d="M700.54,-288C700.54,-288 531.94,-288 531.94,-288 525.94,-288 519.94,-282 519.94,-276 519.94,-276 519.94,-228 519.94,-228 519.94,-222 525.94,-216 531.94,-216 531.94,-216 700.54,-216 700.54,-216 706.54,-216 712.54,-222 712.54,-228 712.54,-228 712.54,-276 712.54,-276 712.54,-282 706.54,-288 700.54,-288"/>
<text text-anchor="middle" x="616.24" y="-256.2" font-family="Arial" font-size="14.00">ExpressApplication</text>
<text text-anchor="middle" x="616.24" y="-239.4" font-family="Arial" font-size="14.00">(AWS::Serverless::Function)</text>
</g>
<!-- ExpressMiddleware -->
<g id="node2" class="node">
<title>ExpressMiddleware</title>
<path fill="#e6e6e6" stroke="black" stroke-width="2" d="M501.99,-180C501.99,-180 322.49,-180 322.49,-180 316.49,-180 310.49,-174 310.49,-168 310.49,-168 310.49,-120 310.49,-120 310.49,-114 316.49,-108 322.49,-108 322.49,-108 501.99,-108 501.99,-108 507.99,-108 513.99,-114 513.99,-120 513.99,-120 513.99,-168 513.99,-168 513.99,-174 507.99,-180 501.99,-180"/>
<text text-anchor="middle" x="412.24" y="-148.2" font-family="Arial" font-size="14.00">ExpressMiddleware</text>
<text text-anchor="middle" x="412.24" y="-131.4" font-family="Arial" font-size="14.00">(Custom::ExpressMiddleware)</text>
</g>
<!-- ExpressApplication&#45;&gt;ExpressMiddleware -->
<g id="edge1" class="edge">
<title>ExpressApplication&#45;&gt;ExpressMiddleware</title>
<path fill="none" stroke="black" d="M548.03,-215.56C529.57,-205.97 509.45,-195.51 490.48,-185.66"/>
<polygon fill="black" stroke="black" points="492.22,-182.61 481.73,-181.11 488.99,-188.82 492.22,-182.61"/>
</g>
<!-- ErrorHandling -->
<g id="node3" class="node">
<title>ErrorHandling</title>
<path fill="#e6e6e6" stroke="black" stroke-width="2" d="M688.1,-180C688.1,-180 544.39,-180 544.39,-180 538.39,-180 532.39,-174 532.39,-168 532.39,-168 532.39,-120 532.39,-120 532.39,-114 538.39,-108 544.39,-108 544.39,-108 688.1,-108 688.1,-108 694.1,-108 700.1,-114 700.1,-120 700.1,-120 700.1,-168 700.1,-168 700.1,-174 694.1,-180 688.1,-180"/>
<text text-anchor="middle" x="616.24" y="-148.2" font-family="Arial" font-size="14.00">ErrorHandling</text>
<text text-anchor="middle" x="616.24" y="-131.4" font-family="Arial" font-size="14.00">(Custom::ErrorHandling)</text>
</g>
<!-- ExpressApplication&#45;&gt;ErrorHandling -->
<g id="edge2" class="edge">
<title>ExpressApplication&#45;&gt;ErrorHandling</title>
<path fill="none" stroke="black" d="M616.24,-215.7C616.24,-207.93 616.24,-199.57 616.24,-191.43"/>
<polygon fill="black" stroke="black" points="619.74,-191.66 616.24,-181.66 612.74,-191.66 619.74,-191.66"/>
</g>
<!-- IoC Container -->
<g id="node4" class="node">
<title>IoC Container</title>
<path fill="#e6e6e6" stroke="black" stroke-width="2" d="M904.27,-180C904.27,-180 730.21,-180 730.21,-180 724.21,-180 718.21,-174 718.21,-168 718.21,-168 718.21,-120 718.21,-120 718.21,-114 724.21,-108 730.21,-108 730.21,-108 904.27,-108 904.27,-108 910.27,-108 916.27,-114 916.27,-120 916.27,-120 916.27,-168 916.27,-168 916.27,-174 910.27,-180 904.27,-180"/>
<text text-anchor="middle" x="817.24" y="-148.2" font-family="Arial" font-size="14.00">IoC Container</text>
<text text-anchor="middle" x="817.24" y="-131.4" font-family="Arial" font-size="14.00">(Custom::InversionOfControl)</text>
</g>
<!-- ExpressApplication&#45;&gt;IoC Container -->
<g id="edge3" class="edge">
<title>ExpressApplication&#45;&gt;IoC Container</title>
<path fill="none" stroke="black" d="M683.45,-215.56C701.64,-205.97 721.46,-195.51 740.15,-185.66"/>
<polygon fill="black" stroke="black" points="741.54,-188.88 748.76,-181.12 738.28,-182.69 741.54,-188.88"/>
</g>
<!-- Cors -->
<g id="node7" class="node">
<title>Cors</title>
<path fill="#e78f81" stroke="black" stroke-width="2" d="M170.48,-72C170.48,-72 12,-72 12,-72 6,-72 0,-66 0,-60 0,-60 0,-12 0,-12 0,-6 6,0 12,0 12,0 170.48,0 170.48,0 176.48,0 182.48,-6 182.48,-12 182.48,-12 182.48,-60 182.48,-60 182.48,-66 176.48,-72 170.48,-72"/>
<text text-anchor="middle" x="91.24" y="-40.2" font-family="Arial" font-size="14.00">Cors</text>
<text text-anchor="middle" x="91.24" y="-23.4" font-family="Arial" font-size="14.00">(Custom::CorsMiddleware)</text>
</g>
<!-- ExpressMiddleware&#45;&gt;Cors -->
<g id="edge4" class="edge">
<title>ExpressMiddleware&#45;&gt;Cors</title>
<path fill="none" stroke="black" d="M310.23,-110.58C275.87,-99.54 237.1,-86.95 193.7,-72.47"/>
<polygon fill="black" stroke="black" points="194.9,-69.18 184.31,-69.33 192.68,-75.82 194.9,-69.18"/>
</g>
<!-- Morgan -->
<g id="node8" class="node">
<title>Morgan</title>
<path fill="#e6e6e6" stroke="black" stroke-width="2" d="M391.62,-72C391.62,-72 212.87,-72 212.87,-72 206.87,-72 200.87,-66 200.87,-60 200.87,-60 200.87,-12 200.87,-12 200.87,-6 206.87,0 212.87,0 212.87,0 391.62,0 391.62,0 397.62,0 403.62,-6 403.62,-12 403.62,-12 403.62,-60 403.62,-60 403.62,-66 397.62,-72 391.62,-72"/>
<text text-anchor="middle" x="302.24" y="-40.2" font-family="Arial" font-size="14.00">Morgan</text>
<text text-anchor="middle" x="302.24" y="-23.4" font-family="Arial" font-size="14.00">(Custom::LoggingMiddleware)</text>
</g>
<!-- ExpressMiddleware&#45;&gt;Morgan -->
<g id="edge5" class="edge">
<title>ExpressMiddleware&#45;&gt;Morgan</title>
<path fill="none" stroke="black" d="M375.61,-107.7C366.43,-98.85 356.47,-89.26 346.94,-80.08"/>
<polygon fill="black" stroke="black" points="349.43,-77.61 339.8,-73.19 344.57,-82.65 349.43,-77.61"/>
</g>
<!-- Helmet -->
<g id="node9" class="node">
<title>Helmet</title>
<path fill="#e6e6e6" stroke="black" stroke-width="2" d="M612.99,-72C612.99,-72 433.49,-72 433.49,-72 427.49,-72 421.49,-66 421.49,-60 421.49,-60 421.49,-12 421.49,-12 421.49,-6 427.49,0 433.49,0 433.49,0 612.99,0 612.99,0 618.99,0 624.99,-6 624.99,-12 624.99,-12 624.99,-60 624.99,-60 624.99,-66 618.99,-72 612.99,-72"/>
<text text-anchor="middle" x="523.24" y="-40.2" font-family="Arial" font-size="14.00">Helmet</text>
<text text-anchor="middle" x="523.24" y="-23.4" font-family="Arial" font-size="14.00">(Custom::SecurityMiddleware)</text>
</g>
<!-- ExpressMiddleware&#45;&gt;Helmet -->
<g id="edge6" class="edge">
<title>ExpressMiddleware&#45;&gt;Helmet</title>
<path fill="none" stroke="black" d="M449.2,-107.7C458.47,-98.85 468.52,-89.26 478.13,-80.08"/>
<polygon fill="black" stroke="black" points="480.53,-82.63 485.35,-73.19 475.7,-77.56 480.53,-82.63"/>
</g>
<!-- ExpressJson -->
<g id="node10" class="node">
<title>ExpressJson</title>
<path fill="#e6e6e6" stroke="black" stroke-width="2" d="M813.49,-72C813.49,-72 654.99,-72 654.99,-72 648.99,-72 642.99,-66 642.99,-60 642.99,-60 642.99,-12 642.99,-12 642.99,-6 648.99,0 654.99,0 654.99,0 813.49,0 813.49,0 819.49,0 825.49,-6 825.49,-12 825.49,-12 825.49,-60 825.49,-60 825.49,-66 819.49,-72 813.49,-72"/>
<text text-anchor="middle" x="734.24" y="-40.2" font-family="Arial" font-size="14.00">ExpressJson</text>
<text text-anchor="middle" x="734.24" y="-23.4" font-family="Arial" font-size="14.00">(Custom::JsonMiddleware)</text>
</g>
<!-- ExpressMiddleware&#45;&gt;ExpressJson -->
<g id="edge7" class="edge">
<title>ExpressMiddleware&#45;&gt;ExpressJson</title>
<path fill="none" stroke="black" d="M514.43,-110.61C556.28,-97.29 600.74,-83.06 632.17,-72.66"/>
<polygon fill="black" stroke="black" points="632.91,-76.1 641.29,-69.62 630.69,-69.46 632.91,-76.1"/>
</g>
<!-- HotSpringApplication -->
<g id="node5" class="node">
<title>HotSpringApplication</title>
<path fill="#e6e6e6" stroke="black" stroke-width="2" d="M714.16,-396C714.16,-396 518.32,-396 518.32,-396 512.32,-396 506.32,-390 506.32,-384 506.32,-384 506.32,-336 506.32,-336 506.32,-330 512.32,-324 518.32,-324 518.32,-324 714.16,-324 714.16,-324 720.16,-324 726.16,-330 726.16,-336 726.16,-336 726.16,-384 726.16,-384 726.16,-390 720.16,-396 714.16,-396"/>
<text text-anchor="middle" x="616.24" y="-364.2" font-family="Arial" font-size="14.00">HotSpringApplication</text>
<text text-anchor="middle" x="616.24" y="-347.4" font-family="Arial" font-size="14.00">(Custom::ApplicationFramework)</text>
</g>
<!-- HotSpringApplication&#45;&gt;ExpressApplication -->
<g id="edge8" class="edge">
<title>HotSpringApplication&#45;&gt;ExpressApplication</title>
<path fill="none" stroke="black" d="M616.24,-323.7C616.24,-315.93 616.24,-307.57 616.24,-299.43"/>
<polygon fill="black" stroke="black" points="619.74,-299.66 616.24,-289.66 612.74,-299.66 619.74,-299.66"/>
</g>
<!-- ComponentScanner -->
<g id="node6" class="node">
<title>ComponentScanner</title>
<path fill="#e6e6e6" stroke="black" stroke-width="2" d="M938.17,-396C938.17,-396 756.31,-396 756.31,-396 750.31,-396 744.31,-390 744.31,-384 744.31,-384 744.31,-336 744.31,-336 744.31,-330 750.31,-324 756.31,-324 756.31,-324 938.17,-324 938.17,-324 944.17,-324 950.17,-330 950.17,-336 950.17,-336 950.17,-384 950.17,-384 950.17,-390 944.17,-396 938.17,-396"/>
<text text-anchor="middle" x="847.24" y="-364.2" font-family="Arial" font-size="14.00">ComponentScanner</text>
<text text-anchor="middle" x="847.24" y="-347.4" font-family="Arial" font-size="14.00">(Custom::ComponentScanner)</text>
</g>
</g>
</svg>
